<?xml version="1.0" encoding="utf-8"?><svg xmlns="http://www.w3.org/2000/svg" xmlns:xlink="http://www.w3.org/1999/xlink" width="1625" height="732" preserveAspectRatio="xMidYMid" viewBox="0 0 1625 732" style="z-index:1;margin-right:-2px;display:block;background-repeat-y:initial;background-repeat-x:initial;animation-play-state:paused" ><g transform="" style="animation-play-state:paused" ><g transform="translate(1261.900663288674,17.409113234869665) scale(100)" opacity="0.4" style="transform:matrix(100, 0, 0, 100, 1261.9, 17.4091);opacity:0.4;animation-play-state:paused" ><path d="M4.720625 0 C4.720625 1.9337499999999999 6.729732796308074 1.6525108754318414 5.762857796308074 3.3271874999999995 S4.034989124568158 3.1213061717399153 2.3603125000000005 4.088181171739915 S1.9337500000000003 6.654375 4.074629522038084e-16 6.654375 S-0.685635875431841 5.055056171739915 -2.360312499999999 4.088181171739916 S-4.795982796308072 5.00186412456816 -5.762857796308073 3.327187500000002 S-4.720625 1.9337500000000005 -4.720625 5.781098296224974e-16 S-6.729732796308074 -1.6525108754318398 -5.762857796308075 -3.327187499999998 S-4.03498912456816 -3.1213061717399144 -2.3603125000000023 -4.088181171739915 S-1.9337500000000012 -6.654375 -1.2223888566114252e-15 -6.654375 S0.6856358754318381 -5.055056171739917 2.360312499999997 -4.088181171739918 S4.7959827963080714 -5.0018641245681605 5.762857796308072 -3.327187500000003 S4.720624999999999 -1.933750000000001 4.720625 -1.1562196592449948e-15" fill="#fff9f5" stroke-width="0" transform="matrix(1,0,0,1,0,0)" style="transform:matrix(1, 0, 0, 1, 0, 0);animation-play-state:paused" ></path></g>
<g transform="translate(1351.7807959464087,-52.30906411815636) scale(100)" opacity="0.4" style="transform:matrix(100, 0, 0, 100, 1351.78, -52.3091);opacity:0.4;animation-play-state:paused" ><path d="M5.66475 0 C5.66475 2.3205 8.075679355569688 1.9830130505182093 6.915429355569689 3.9926249999999994 S4.8419869494817895 3.745567406087898 2.8323750000000003 4.905817406087898 S2.3205000000000005 7.98525 4.889555426445701e-16 7.98525 S-0.8227630505182084 6.066067406087899 -2.8323749999999985 4.905817406087899 S-5.755179355569687 6.002236949481793 -6.915429355569687 3.9926250000000025 S-5.66475 2.320500000000001 -5.66475 6.937317955469968e-16 S-8.075679355569688 -1.9830130505182075 -6.91542935556969 -3.9926249999999976 S-4.841986949481792 -3.745567406087896 -2.8323750000000025 -4.905817406087897 S-2.3205000000000013 -7.98525 -1.4668666279337101e-15 -7.98525 S0.8227630505182053 -6.0660674060879 2.8323749999999963 -4.905817406087901 S5.755179355569685 -6.002236949481793 6.915429355569686 -3.9926250000000034 S5.664749999999999 -2.3205000000000013 5.66475 -1.3874635910939937e-15" fill="#f3eed3" stroke-width="0" transform="matrix(1,0,0,1,0,0)" style="transform:matrix(1, 0, 0, 1, 0, 0);animation-play-state:paused" ></path></g>
<g transform="translate(1567.493114324972,-219.63268976541883) scale(100)" opacity="0.4" style="transform:matrix(100, 0, 0, 100, 1567.49, -219.633);opacity:0.4;animation-play-state:paused" ><path d="M7.930649999999999 0 C7.930649999999999 3.2486999999999995 11.305951097797564 2.776218270725493 9.681601097797564 5.589674999999999 S6.778781729274506 5.243794368523057 3.9653250000000004 6.868144368523057 S3.2487000000000004 11.17935 6.845377597023982e-16 11.17935 S-1.1518682707254921 8.492494368523058 -3.9653249999999978 6.868144368523058 S-8.057251097797561 8.403131729274508 -9.681601097797563 5.589675000000003 S-7.930649999999999 3.2487000000000004 -7.930649999999999 9.712245137657956e-16 S-11.305951097797564 -2.776218270725491 -9.681601097797566 -5.589674999999997 S-6.778781729274508 -5.243794368523055 -3.965325000000003 -6.8681443685230565 S-3.2487000000000017 -11.17935 -2.053613279107194e-15 -11.17935 S1.1518682707254877 -8.492494368523058 3.965324999999994 -6.868144368523061 S8.05725109779756 -8.40313172927451 9.68160109779756 -5.589675000000005 S7.930649999999998 -3.2487000000000013 7.930649999999999 -1.942449027531591e-15" fill="#caeabe" stroke-width="0" transform="matrix(1,0,0,1,0,0)" style="transform:matrix(1, 0, 0, 1, 0, 0);animation-play-state:paused" ></path></g>
<g transform="translate(2020.4889829199556,-571.0123036246703) scale(100)" opacity="0.4" style="transform:matrix(100, 0, 0, 100, 2020.49, -571.012);opacity:0.4;animation-play-state:paused" ><path d="M12.68904 0 C12.68904 5.19792 18.089521756476103 4.441949233160788 15.490561756476103 8.943479999999997 S10.84605076683921 8.390070989636893 6.344520000000002 10.989030989636893 S5.197920000000001 17.88696 1.0952604155238369e-15 17.88696 S-1.8429892331607878 13.587990989636893 -6.3445199999999975 10.989030989636895 S-12.891601756476097 13.445010766839212 -15.4905617564761 8.943480000000005 S-12.68904 5.197920000000002 -12.68904 1.553959222025273e-15 S-18.089521756476103 -4.441949233160784 -15.490561756476104 -8.943479999999994 S-10.846050766839213 -8.39007098963689 -6.3445200000000055 -10.989030989636891 S-5.197920000000003 -17.88696 -3.285781246571511e-15 -17.88696 S1.8429892331607798 -13.587990989636895 6.344519999999991 -10.989030989636898 S12.891601756476096 -13.445010766839214 15.490561756476097 -8.943480000000006 S12.689039999999999 -5.1979200000000025 12.68904 -3.107918444050546e-15" fill="#89e8c8" stroke-width="0" transform="matrix(1,0,0,1,0,0)" style="transform:matrix(1, 0, 0, 1, 0, 0);animation-play-state:paused" ></path></g>
<g transform="translate(2986.88016925592,-1320.6221465244066) scale(100)" opacity="0.4" style="transform:matrix(100, 0, 0, 100, 2986.88, -1320.62);opacity:0.4;animation-play-state:paused" ><path d="M22.840272 0 C22.840272 9.356255999999998 32.56113916165699 7.995508619689421 27.883011161656988 16.098263999999997 S19.522891380310575 15.102127781346404 11.420136000000001 19.780255781346405 S9.356256 32.196528 1.9714687479429066e-15 32.196528 S-3.317380619689418 24.458383781346406 -11.420135999999994 19.78025578134641 S-23.20488316165698 24.201019380310584 -27.88301116165698 16.09826400000001 S-22.840272 9.356256000000002 -22.840272 2.7971265996454914e-15 S-32.56113916165699 -7.995508619689412 -27.88301116165699 -16.09826399999999 S-19.522891380310583 -15.1021277813464 -11.42013600000001 -19.780255781346405 S-9.356256000000004 -32.196528 -5.9144062438287195e-15 -32.196528 S3.317380619689404 -24.45838378134641 11.420135999999983 -19.780255781346415 S23.204883161656973 -24.201019380310587 27.883011161656977 -16.098264000000015 S22.840271999999995 -9.356256000000004 22.840272 -5.594253199290983e-15" fill="#1edfef" stroke-width="0" transform="matrix(1,0,0,1,0,0)" style="transform:matrix(1, 0, 0, 1, 0, 0);animation-play-state:paused" ></path></g></g></svg>