<?xml version="1.0" encoding="utf-8"?><svg xmlns="http://www.w3.org/2000/svg" xmlns:xlink="http://www.w3.org/1999/xlink" width="1545" height="665" preserveAspectRatio="xMidYMid" viewBox="0 0 1545 665" style="z-index:1;margin-right:-2px;display:block;background-repeat-y:initial;background-repeat-x:initial;animation-play-state:paused" ><g transform="" style="animation-play-state:paused" ><linearGradient id="lg-0.736987681506285" x1="0" x2="1" y1="0" y2="0" style="animation-play-state:paused" ><stop stop-color="#fff9f5" offset="0" style="animation-play-state:paused" ></stop>

  
<stop stop-color="#26eece" offset="1" style="animation-play-state:paused" ></stop></linearGradient>
<path fill="url(#lg-0.736987681506285)" opacity="0.4" d="M 0 0 M 0 638.257 Q 85.8333 598.192 171.667 588.827 T 343.333 575.997 T 515 545.897 T 686.667 511.826 T 858.333 532.907 T 1030 527.924 T 1201.67 483.346 T 1373.33 477.913 T 1545 466.756 L 1545 173.539 Q 1459.17 205.551 1373.33 197.449 T 1201.67 173.479 T 1030 135.734 T 858.333 163.62 T 686.667 96.3547 T 515 134.894 T 343.333 97.029 T 171.667 118.195 T 0 89.5045 Z" style="opacity:0.4;animation-play-state:paused" ></path>
<path fill="url(#lg-0.736987681506285)" opacity="0.4" d="M 0 0 M 0 618.813 Q 85.8333 575.764 171.667 570.234 T 343.333 588.951 T 515 586.003 T 686.667 565.289 T 858.333 522.509 T 1030 518.489 T 1201.67 502.874 T 1373.33 468.693 T 1545 490.856 L 1545 196.63 Q 1459.17 188.724 1373.33 187.07 T 1201.67 144.181 T 1030 164.839 T 858.333 140.603 T 686.667 109.743 T 515 84.0795 T 343.333 115.243 T 171.667 65.804 T 0 70.4803 Z" style="opacity:0.4;animation-play-state:paused" ></path>
<path fill="url(#lg-0.736987681506285)" opacity="0.4" d="M 0 0 M 0 611.69 Q 85.8333 606.364 171.667 600.43 T 343.333 577.438 T 515 561.204 T 686.667 569.586 T 858.333 519.397 T 1030 506.154 T 1201.67 512.342 T 1373.33 497.581 T 1545 481.51 L 1545 167.025 Q 1459.17 159.916 1373.33 157.246 T 1201.67 147.032 T 1030 125.39 T 858.333 126.698 T 686.667 112.247 T 515 94.4994 T 343.333 90.3093 T 171.667 80.6235 T 0 63.7438 Z" style="opacity:0.4;animation-play-state:paused" ></path>
<path fill="url(#lg-0.736987681506285)" opacity="0.4" d="M 0 0 M 0 596.524 Q 85.8333 627.982 171.667 621.997 T 343.333 572.758 T 515 565.555 T 686.667 520.752 T 858.333 536.238 T 1030 522.994 T 1201.67 542.236 T 1373.33 486.836 T 1545 509.209 L 1545 148.193 Q 1459.17 212.274 1373.33 202.312 T 1201.67 155.736 T 1030 135.678 T 858.333 143.468 T 686.667 89.561 T 515 119.514 T 343.333 59.7968 T 171.667 80.7486 T 0 79.3892 Z" style="opacity:0.4;animation-play-state:paused" ></path>
<path fill="url(#lg-0.736987681506285)" opacity="0.4" d="M 0 0 M 0 604.48 Q 85.8333 588.568 171.667 582.041 T 343.333 582.404 T 515 553.268 T 686.667 564.779 T 858.333 523.86 T 1030 535.684 T 1201.67 508.934 T 1373.33 456.625 T 1545 501.476 L 1545 162.009 Q 1459.17 188.663 1373.33 185.476 T 1201.67 134.53 T 1030 128.155 T 858.333 129.091 T 686.667 119.974 T 515 128.562 T 343.333 110.329 T 171.667 90.8604 T 0 55.7605 Z" style="opacity:0.4;animation-play-state:paused" ></path>
<path fill="url(#lg-0.736987681506285)" opacity="0.4" d="M 0 0 M 0 576.513 Q 85.8333 603.335 171.667 597.216 T 343.333 576.393 T 515 568.431 T 686.667 539.883 T 858.333 558.563 T 1030 508.585 T 1201.67 490.819 T 1373.33 473.596 T 1545 468.25 L 1545 155.212 Q 1459.17 187.546 1373.33 184.421 T 1201.67 150.651 T 1030 132.162 T 858.333 144.657 T 686.667 109.366 T 515 126.827 T 343.333 81.5681 T 171.667 82.0891 T 0 77.5808 Z" style="opacity:0.4;animation-play-state:paused" ></path>
<path fill="url(#lg-0.736987681506285)" opacity="0.4" d="M 0 0 M 0 627.873 Q 85.8333 557.863 171.667 551.004 T 343.333 542.354 T 515 598.266 T 686.667 507.108 T 858.333 563.28 T 1030 517.539 T 1201.67 513.18 T 1373.33 476.926 T 1545 468.082 L 1545 154.625 Q 1459.17 181.688 1373.33 176.013 T 1201.67 156.287 T 1030 123.794 T 858.333 96.3907 T 686.667 143.936 T 515 68.2558 T 343.333 56.6628 T 171.667 96.1161 T 0 47.118 Z" style="opacity:0.4;animation-play-state:paused" ></path>
<path fill="url(#lg-0.736987681506285)" opacity="0.4" d="M 0 0 M 0 602.338 Q 85.8333 571.056 171.667 563.996 T 343.333 543.438 T 515 566.728 T 686.667 574.768 T 858.333 558.548 T 1030 513.691 T 1201.67 507.221 T 1373.33 476.63 T 1545 466.198 L 1545 166.989 Q 1459.17 184.188 1373.33 183.243 T 1201.67 146.047 T 1030 157.569 T 858.333 125.856 T 686.667 127.769 T 515 100.449 T 343.333 62.2499 T 171.667 76.7213 T 0 79.4979 Z" style="opacity:0.4;animation-play-state:paused" ></path>
<path fill="url(#lg-0.736987681506285)" opacity="0.4" d="M 0 0 M 0 592.296 Q 85.8333 613.845 171.667 609.663 T 343.333 569.522 T 515 546.933 T 686.667 536.185 T 858.333 539.532 T 1030 515.459 T 1201.67 485.06 T 1373.33 494.273 T 1545 503.769 L 1545 164.289 Q 1459.17 181.694 1373.33 173.97 T 1201.67 149.045 T 1030 113.016 T 858.333 131.537 T 686.667 141.135 T 515 115.006 T 343.333 73.1127 T 171.667 58.0293 T 0 55.7862 Z" style="opacity:0.4;animation-play-state:paused" ></path></g></svg>